
        <svg xmlns="http://www.w3.org/2000/svg" xmlns:xlink="http://www.w3.org/1999/xlink" version="1.1" width="3149.543832849517" 
        height="1183.3353059343028" viewBox="0 0 3149.543832849517 1183.3353059343028">
			<!-- <rect fill="#262833" width="3149.543832849517" height="1183.3353059343028"/> -->
			<!-- #00ebc7 -->
			<g transform="scale(7.477191642475842) translate(10, 10)">
				<defs id="SvgjsDefs5058"></defs><g id="SvgjsG5059" featureKey="mugSzh-0" transform="matrix(0.7716075919429639,0,0,0.7716075919429639,162.45678481611407,-6.588756886160842)" fill="#35c680"><path xmlns="http://www.w3.org/2000/svg" d="M95,8.539L53,22.986v50.284c-1.832-0.864-4.27-1.001-6.694-0.193c-4.192,1.397-6.74,5.078-5.692,8.222  c1.048,3.144,5.295,4.559,9.487,3.162c3.742-1.247,6.166-4.314,5.899-7.195V32l36-12.397v32.681  c-1.835-0.876-4.286-1.019-6.722-0.207c-4.192,1.397-6.74,5.078-5.692,8.222c1.048,3.144,5.295,4.559,9.487,3.162  c3.525-1.175,5.878-3.965,5.918-6.692H95V8.539z"></path><g xmlns="http://www.w3.org/2000/svg"><path d="M19,9v43c-1.869-0.892-4.481-0.971-6.963-0.143c-4.269,1.423-6.865,5.172-5.798,8.374c1.067,3.202,5.393,4.644,9.663,3.221   c3.59-1.197,6.047-4.038,6.087-6.816H22V23c0,0,12.926,3.741,17,18C39,24.704,25,22,19,9z"></path><g><path d="M37.423,79H2v2h35.476C37.371,80.333,37.355,79.664,37.423,79z"></path><path d="M98,81v-2H58.9c-0.115,0.68-0.31,1.351-0.591,2H98z"></path><path d="M5.078,64H2v2h5.87C6.789,65.499,5.842,64.824,5.078,64z"></path><path d="M98,66v-2h-3.769c-0.978,0.804-2.112,1.487-3.377,2H98z"></path><path d="M78.401,64H59v2h22.155C80.082,65.501,79.157,64.82,78.401,64z"></path><path d="M21.09,64c-0.996,0.803-2.149,1.486-3.433,2H50v-2H21.09z"></path><rect x="25" y="49" width="25" height="2"></rect><path d="M11.125,49H2v2h5.25c1.106-0.825,2.395-1.508,3.839-1.99C11.101,49.006,11.113,49.004,11.125,49z"></path><path d="M59,51h21.822c1.029-0.725,2.201-1.333,3.507-1.769c0.264-0.088,0.53-0.16,0.796-0.231H59V51z"></path><path d="M32.25,34H25v2h8.595C33.168,35.288,32.718,34.622,32.25,34z"></path><rect x="2" y="34" width="14" height="2"></rect><polygon points="59,36 89,36 89,34 59.406,34 59,34.14   "></polygon><path d="M41.551,36H50v-2h-8.898C41.277,34.642,41.425,35.311,41.551,36z"></path><path d="M32.734,21h18.028c0.335-0.378,0.762-0.678,1.263-0.851L55.366,19H30.686c0.004,0.004,0.008,0.007,0.011,0.011    C31.377,19.668,32.059,20.328,32.734,21z"></path><rect x="2" y="19" width="14" height="2"></rect></g></g></g><g id="SvgjsG5060" featureKey="uwAHB0-0" transform="matrix(1.2942920790875345,0,0,1.2942920790875345,-0.12943031880855582,111.90753797470097)" fill="#35c680"><path d="M3.6 15.04 l6.5 0 l-3.2 -7.76 z M7.64 5.84 l5.96 14.16 l-1.48 0 l-1.54 -3.76 l-7.5 0 l-1.6 3.76 l-1.38 0 l6.18 -14.16 l1.36 0 z M26.924 5.84 l0 8.5 q0 2.3 0.95 3.54 t2.89 1.28 q3.8 0 3.84 -5.02 l0 -8.3 l1.32 0 l0 8.64 q0 2.78 -1.3 4.32 t-3.86 1.56 q-2.52 0 -3.83 -1.53 t-1.33 -4.25 l0 -8.74 l1.32 0 z M53.728 18.8 q3.04 0 4.8 -1.54 t1.78 -4.24 q0 -2.88 -1.75 -4.42 t-4.89 -1.56 l-2.76 0 l0 11.76 l2.82 0 z M54.008 5.84 q3.56 0 5.57 1.92 t2.05 5.26 q0 1.96 -0.89 3.55 t-2.56 2.51 t-4.09 0.92 l-4.5 0 l0 -14.16 l4.42 0 z M76.132 5.84 l0 14.16 l-1.32 0 l0 -14.16 l1.32 0 z M90.636 12.92 q0 2.7 1.66 4.45 t4.34 1.79 q2.7 0 4.34 -1.77 t1.66 -4.47 q0 -2.74 -1.64 -4.47 t-4.38 -1.77 q-2.68 0 -4.32 1.76 t-1.66 4.48 z M96.636 5.48 q2.16 0 3.82 0.95 t2.57 2.66 t0.93 3.83 q0 3.26 -2.06 5.33 t-5.26 2.11 q-3.22 0 -5.24 -2.09 t-2.08 -5.35 q0.02 -3.26 2.04 -5.32 t5.28 -2.12 z M134.224 15.04 l6.5 0 l-3.2 -7.76 z M138.26399999999998 5.84 l5.96 14.16 l-1.48 0 l-1.54 -3.76 l-7.5 0 l-1.6 3.76 l-1.38 0 l6.18 -14.16 l1.36 0 z M160.708 12.08 q1.54 0 2.38 -0.69 t0.84 -1.83 t-0.82 -1.82 t-2.44 -0.7 l-2.86 0 l0 5.04 l2.9 0 z M160.308 5.84 q4.9 0 4.94 3.72 q0 3.14 -3.62 3.64 l4.12 6.8 l-1.5 0 l-3.98 -6.72 l-2.46 0 l0 6.72 l-1.32 0 l0 -14.16 l3.82 0 z M182.792 12.08 q1.54 0 2.38 -0.69 t0.84 -1.83 t-0.82 -1.82 t-2.44 -0.7 l-2.86 0 l0 5.04 l2.9 0 z M182.392 5.84 q4.9 0 4.94 3.72 q0 3.14 -3.62 3.64 l4.12 6.8 l-1.5 0 l-3.98 -6.72 l-2.46 0 l0 6.72 l-1.32 0 l0 -14.16 l3.82 0 z M202.316 15.04 l6.5 0 l-3.2 -7.76 z M206.356 5.84 l5.96 14.16 l-1.48 0 l-1.54 -3.76 l-7.5 0 l-1.6 3.76 l-1.38 0 l6.18 -14.16 l1.36 0 z M226.28 5.84 l8.62 12.4 l0.04 0 l0 -12.4 l1.32 0 l0 14.16 l-1.7 0 l-8.62 -12.4 l-0.04 0 l0 12.4 l-1.32 0 l0 -14.16 l1.7 0 z M256.764 5.48 q3.2 -0.02 5.1 1.96 l-0.96 1 q-0.6 -0.74 -1.77 -1.25 t-2.37 -0.51 q-2.66 0 -4.32 1.76 t-1.68 4.48 q0 2.7 1.64 4.44 t4.38 1.8 q2.6 0 3.94 -0.84 l0 -4.76 l-3.4 0 l0 -1.2 l4.72 0 l0 6.72 q-2.3 1.28 -5.28 1.28 q-3.2 0 -5.23 -2.09 t-2.09 -5.35 q0.02 -3.28 2.06 -5.34 t5.26 -2.1 z M284.80800000000005 5.84 l0 1.2 l-7.34 0 l0 5.04 l6.88 0 l0 1.2 l-6.88 0 l0 5.52 l7.66 0 l0 1.2 l-8.98 0 l0 -14.16 l8.66 0 z M302.192 18.8 q3.04 0 4.8 -1.54 t1.78 -4.24 q0 -2.88 -1.75 -4.42 t-4.89 -1.56 l-2.76 0 l0 11.76 l2.82 0 z M302.47200000000004 5.84 q3.56 0 5.57 1.92 t2.05 5.26 q0 1.96 -0.89 3.55 t-2.56 2.51 t-4.09 0.92 l-4.5 0 l0 -14.16 l4.42 0 z"></path></g><g id="SvgjsG5061" featureKey="nameLeftFeature-0" transform="matrix(2.0431395029603574,0,0,2.0431395029603574,30.465954112900736,67.36789565845488)" fill="#ffffff"><path d="M17.998 20 l-2.9199 0 l-0.92773 -10.635 l-3.5742 10.635 l-1.8945 0 l-3.5742 -10.635 l-0.9375 10.635 l-2.9297 0 l1.1816 -14.111 l4.1797 0 l3.0078 8.8574 l3.0469 -8.8574 l4.1797 0 z M26.28908125 20.19531 c-3.0957 0 -5.5176 -1.582 -5.5176 -5.1367 l0 -9.1699 l2.9297 0 l0 8.7695 c0 2.1484 1.1426 2.9492 2.5879 2.9492 c1.4551 0 2.6074 -0.81055 2.6074 -2.9492 l0 -8.7695 l2.9297 0 l0 9.1699 c0 3.5547 -2.4316 5.1367 -5.5371 5.1367 z M39.873075 20.19531 c-3.0273 0 -5.3906 -1.4551 -5.8203 -4.1016 l3.0273 -0.69336 c0.19531 1.582 1.3574 2.4023 2.9102 2.4023 c1.1914 0 2.1387 -0.52734 2.1289 -1.7188 c-0.0097656 -1.3281 -1.5723 -1.748 -3.291 -2.2754 c-2.0703 -0.64453 -4.2871 -1.4063 -4.2871 -4.0039 c0 -2.627 2.1484 -4.1113 4.9805 -4.1113 c2.4805 0 4.9805 1.0059 5.5469 3.7109 l-2.832 0.70313 c-0.26367 -1.4063 -1.2109 -2.0215 -2.5391 -2.0215 c-1.1816 0 -2.1875 0.48828 -2.1875 1.6504 c0 1.084 1.3867 1.4453 2.9883 1.9238 c2.1289 0.64453 4.6484 1.4648 4.6484 4.2773 c0 2.998 -2.5098 4.2578 -5.2734 4.2578 z M47.851590625 20 l0 -14.111 l2.9297 0 l0 14.111 l-2.9297 0 z M60.67385625 20.19531 c-4.1504 0 -7.2168 -2.8223 -7.2168 -7.2559 s3.0664 -7.2461 7.2168 -7.2461 c3.1445 0 5.6641 1.6113 6.6699 4.2871 l-2.7344 0.99609 c-0.625 -1.6406 -2.1191 -2.5879 -3.9355 -2.5879 c-2.4316 0 -4.2969 1.6992 -4.2969 4.5508 s1.8652 4.5605 4.2969 4.5605 c1.8164 0 3.3105 -0.95703 3.9355 -2.5977 l2.7344 0.99609 c-1.0059 2.6758 -3.5254 4.2969 -6.6699 4.2969 z"></path></g><g id="SvgjsG5062" featureKey="nameRightFeature-0" transform="matrix(2.0710477223453605,0,0,2.0710477223453605,174.2660311959593,66.82449275042546)" fill="#ffffff"><path d="M22.5493125 20 l-2.3145 0 l-0.91797 -10.996 l-3.9941 10.996 l-1.4648 0 l-3.9746 -10.977 l-0.92773 10.977 l-2.3242 0 l1.1133 -13.926 l3.252 0 l3.584 9.8438 l3.6133 -9.8438 l3.252 0 z M35.117374999999996 20 l-1.1035 -3.0957 l-6.084 0 l-1.0938 3.0957 l-2.4121 0 l5.127 -13.926 l2.8418 0 l5.127 13.926 l-2.4023 0 z M28.642575 14.9023 l4.668 0 l-2.334 -6.582 z M47.64645 6.074 l0 2.0801 l-3.4375 0 l0 11.846 l-2.3242 0 l0 -11.846 l-3.4473 0 l0 -2.0801 l9.209 0 z M57.792934375 6.074 l0 2.0801 l-3.4375 0 l0 11.846 l-2.3242 0 l0 -11.846 l-3.4473 0 l0 -2.0801 l9.209 0 z M68.02731875 8.154 l-5.4102 0 l0 3.8574 l4.7852 0 l0 2.0605 l-4.7852 0 l0 3.8379 l5.4102 0 l0 2.0898 l-7.7734 0 l0 -13.926 l7.7734 0 l0 2.0801 z M78.66215 20 l-3.6133 -6.2109 l-1.5039 0 l0 6.2109 l-2.334 0 l0 -13.926 l4.834 0 c3.0176 0 4.3457 1.8066 4.3457 4.043 c0 1.9434 -1.1523 3.252 -2.998 3.584 l4.0137 6.2988 l-2.7441 0 z M73.54495 8.047 l0 4.0137 l2.1582 0 c1.709 0 2.4414 -0.80078 2.4414 -1.9922 c0 -1.1816 -0.73242 -2.0215 -2.4414 -2.0215 l-2.1582 0 z M88.447221875 20.18555 c-2.9492 0 -5.1563 -1.4063 -5.6055 -3.8672 l2.4023 -0.55664 c0.25391 1.6016 1.5723 2.4805 3.291 2.4805 c1.3574 0 2.5879 -0.57617 2.5684 -2.041 c-0.019531 -1.5234 -1.709 -1.9629 -3.5352 -2.4805 c-2.1094 -0.61523 -4.2773 -1.3184 -4.2773 -3.877 c0 -2.5977 2.1289 -3.9648 4.7754 -3.9648 c2.4414 0 4.7559 1.0254 5.293 3.5254 l-2.2559 0.56641 c-0.3125 -1.4844 -1.4648 -2.1387 -2.9199 -2.1387 c-1.2988 0 -2.5293 0.55664 -2.5293 1.9727 c0 1.2891 1.4746 1.6895 3.1641 2.1582 c2.1777 0.60547 4.6973 1.3477 4.6973 4.1406 c0 2.8809 -2.4121 4.082 -5.0684 4.082 z"></path></g>
			</g>
		</svg>
	